<?xml version="1.0" standalone="no"?>
<!DOCTYPE svg PUBLIC "-//W3C//DTD SVG 20010904//EN"
 "http://www.w3.org/TR/2001/REC-SVG-20010904/DTD/svg10.dtd">
<svg version="1.0" xmlns="http://www.w3.org/2000/svg"
 width="300.000000pt" height="300.000000pt" viewBox="0 0 300.000000 300.000000"
 preserveAspectRatio="xMidYMid meet">
<metadata>
Created by potrace 1.14, written by Peter Selinger 2001-2017
</metadata>
<g transform="translate(0.000000,300.000000) scale(0.100000,-0.100000)"
fill="#000000" stroke="none">
<path d="M585 2549 c-28 -4 -77 -14 -110 -24 -66 -19 -195 -83 -195 -96 0 -5
-6 -9 -12 -9 -17 0 -117 -104 -155 -160 -77 -113 -115 -253 -109 -397 7 -175
-32 -198 416 250 217 217 405 405 417 418 l22 24 -112 0 c-62 0 -135 -3 -162
-6z"/>
<path d="M607 2047 l-508 -508 32 -40 c48 -61 100 -113 144 -142 l39 -27 443
443 c244 243 448 450 454 460 8 13 3 26 -18 55 -15 20 -38 45 -51 56 -13 10
-20 21 -17 25 6 5 755 10 755 5 0 -2 -6 -9 -13 -16 -42 -44 -91 -114 -122
-174 l-35 -69 -181 -1 -180 0 -429 -429 c-236 -236 -428 -431 -426 -433 11
-11 84 -17 186 -16 130 1 198 19 306 79 199 111 334 335 338 560 l1 60 175 0
175 1 1 -56 c1 -64 13 -142 22 -152 4 -4 189 175 410 397 l404 404 -44 12
c-31 9 -217 12 -698 13 l-655 1 -508 -508z"/>
<path d="M2231 1996 c-435 -435 -453 -454 -441 -477 15 -29 147 -161 176 -177
20 -11 58 25 478 445 l456 456 -27 36 c-44 60 -164 171 -185 171 -2 0 -207
-204 -457 -454z"/>
<path d="M2563 1656 l-401 -403 46 -11 c26 -6 94 -10 152 -8 170 5 310 62 431
178 131 125 197 273 204 458 4 96 -8 191 -24 189 -3 0 -187 -182 -408 -403z"/>
<path d="M1054 1210 c-135 -20 -283 -97 -400 -207 -47 -44 -122 -149 -159
-223 -26 -52 -65 -161 -65 -182 0 -5 117 -59 176 -81 112 -43 259 -69 384 -70
79 -1 208 15 228 27 5 3 21 7 37 10 48 9 149 63 198 107 l47 41 46 -41 c50
-43 79 -60 159 -93 56 -22 62 -24 180 -44 48 -9 200 -8 253 1 20 4 46 8 57 10
91 14 204 49 308 97 66 31 68 32 61 62 -21 103 -121 277 -211 371 -96 99 -236
178 -374 211 -49 12 -196 11 -249 -2 -70 -16 -149 -55 -193 -93 l-34 -31 -44
35 c-42 32 -159 91 -159 80 0 -3 -9 -1 -19 5 -26 13 -163 20 -227 10z"/>
</g>
</svg>
